<?xml version="1.0" standalone="no"?><!DOCTYPE svg PUBLIC "-//W3C//DTD SVG 1.1//EN" "http://www.w3.org/Graphics/SVG/1.1/DTD/svg11.dtd"><svg class="icon" width="200px" height="200.00px" viewBox="0 0 1024 1024" version="1.1" xmlns="http://www.w3.org/2000/svg"><path d="M824.888889 56.888889a56.888889 56.888889 0 0 1 56.888889 56.888889v796.444444a51.2 51.2 0 0 1-56.888889 56.888889H199.111111a56.888889 56.888889 0 0 1-56.888889-56.888889V113.777778a62.577778 62.577778 0 0 1 56.888889-56.888889h625.777778m0-56.888889H199.111111a113.777778 113.777778 0 0 0-113.777778 113.777778v796.444444a113.777778 113.777778 0 0 0 113.777778 113.777778h625.777778a113.777778 113.777778 0 0 0 113.777778-113.777778V113.777778a113.777778 113.777778 0 0 0-113.777778-113.777778z" fill="#1368E5" /><path d="M745.244444 876.088889H284.444444a28.444444 28.444444 0 0 1-28.444444-28.444445 28.444444 28.444444 0 0 1 28.444444-28.444444h460.8a28.444444 28.444444 0 0 1 28.444445 28.444444 34.133333 34.133333 0 0 1-28.444445 28.444445zM688.355556 768H341.333333A28.444444 28.444444 0 0 1 312.888889 739.555556v-170.666667a199.111111 199.111111 0 0 1 199.111111-199.111111 199.111111 199.111111 0 0 1 204.8 199.111111v170.666667a34.133333 34.133333 0 0 1-28.444444 28.444444z m-318.577778-56.888889h290.133333V568.888889a147.911111 147.911111 0 0 0-147.911111-142.222222A142.222222 142.222222 0 0 0 369.777778 568.888889zM512 312.888889A28.444444 28.444444 0 0 1 483.555556 284.444444V187.733333a28.444444 28.444444 0 0 1 56.888888 0V284.444444a28.444444 28.444444 0 0 1-28.444444 28.444445zM648.533333 341.333333h-17.066666a34.133333 34.133333 0 0 1-5.688889-39.822222L688.355556 227.555556a34.133333 34.133333 0 0 1 39.822222-5.688889 45.511111 45.511111 0 0 1 5.688889 45.511111l-62.577778 62.577778zM375.466667 347.022222l-22.755556-11.377778-56.888889-73.955555a28.444444 28.444444 0 0 1 0-39.822222 28.444444 28.444444 0 0 1 39.822222 5.688889l62.577778 68.266666a28.444444 28.444444 0 0 1-5.688889 39.822222z" fill="#1368E5" /></svg>